<svg xmlns="http://www.w3.org/2000/svg" viewBox="0 0 256 256" width="256" height="256" role="img" aria-label="Amatista Dental">
  <defs>
    <radialGradient id="bg" cx="50%" cy="38%" r="75%">
      <stop offset="0%" stop-color="#1c1018"/>
      <stop offset="100%" stop-color="#0b0710"/>
    </radialGradient>
    <linearGradient id="oro" x1="0" y1="0" x2="0" y2="1">
      <stop offset="0%" stop-color="#f5d98b"/>
      <stop offset="45%" stop-color="#d4af37"/>
      <stop offset="100%" stop-color="#a9851f"/>
    </linearGradient>
    <linearGradient id="brillo" x1="0" y1="0" x2="1" y2="1">
      <stop offset="0%" stop-color="#fff6da" stop-opacity="0.9"/>
      <stop offset="60%" stop-color="#fff6da" stop-opacity="0"/>
    </linearGradient>
  </defs>

  <circle cx="128" cy="128" r="128" fill="url(#bg)"/>
  <circle cx="128" cy="128" r="120" fill="none" stroke="#d4af37" stroke-opacity="0.35" stroke-width="2"/>

  <!-- Diente -->
  <g>
    <path fill="url(#oro)" d="M128 54c-26 0-40 12-52 12-15 0-28-9-39 2-13 13-9 39-2 66 6 23 9 33 14 49 4 13 9 21 16 21 9 0 11-12 14-27 3-13 6-23 12-23s9 10 12 23c3 15 5 27 14 27 7 0 12-8 16-21 5-16 8-26 14-49 7-27 11-53-2-66-11-11-24-2-39-2-12 0-26-12-52-12z"/>
    <path fill="url(#brillo)" d="M96 74c-10 0-19-5-28 1-9 7-9 22-6 38 1 6 7 8 10 2 5-11 7-23 13-31 5-7 13-10 11-10z"/>
  </g>

  <!-- Destello amatista -->
  <circle cx="170" cy="92" r="7" fill="#c084fc" opacity="0.9"/>
  <circle cx="170" cy="92" r="12" fill="none" stroke="#c084fc" stroke-opacity="0.5" stroke-width="2"/>
</svg>
